<?xml version="1.0" encoding="UTF-8"?>
<svg width="512" height="512" viewBox="0 0 512 512" version="1.1" xmlns="http://www.w3.org/2000/svg">
  <defs>
    <linearGradient id="g1" x1="0%" y1="0%" x2="100%" y2="100%">
      <stop offset="0%" style="stop-color:#4CAF50;stop-opacity:1" />
      <stop offset="100%" style="stop-color:#45a049;stop-opacity:1" />
    </linearGradient>
  </defs>
  <circle cx="256" cy="256" r="256" fill="#ffffff"/>
  <g transform="translate(128,128) scale(0.5,0.5)">
    <path fill="url(#g1)" d="M256 128c-70.7 0-128 57.3-128 128 0 35.4 14.3 67.3 37.5 90.5C165.5 346.5 256 384 256 384s90.5-37.5 90.5-37.5c23.2-23.2 37.5-55.1 37.5-90.5 0-70.7-57.3-128-128-128zm0 224c-52.9 0-96-43.1-96-96s43.1-96 96-96 96 43.1 96 96-43.1 96-96 96z"/>
    <circle fill="url(#g1)" cx="256" cy="256" r="64"/>
    <path fill="url(#g1)" d="M256 224c-17.7 0-32 14.3-32 32s14.3 32 32 32 32-14.3 32-32-14.3-32-32-32zm0 48c-8.8 0-16-7.2-16-16s7.2-16 16-16 16 7.2 16 16-7.2 16-16 16z"/>
  </g>
</svg>
