<?xml version="1.0" encoding="UTF-8"?>
<svg width="512" height="512" version="1.1" viewBox="0 0 512 512" xmlns="http://www.w3.org/2000/svg">
 <g>
  <circle cx="256" cy="256" r="256" fill="#4CAF50" fill-opacity=".1"/>
  <g transform="matrix(1.3 0 0 1.3 -76.8 -76.8)" fill="#4CAF50">
   <path d="m256 96c-26.5 0-48 21.5-48 48 0 13.3 5.3 25.3 14 34-8.7 8.7-14 20.7-14 34 0 26.5 21.5 48 48 48s48-21.5 48-48c0-13.3-5.3-25.3-14-34 8.7-8.7 14-20.7 14-34 0-26.5-21.5-48-48-48zm0 128c-8.8 0-16-7.2-16-16s7.2-16 16-16 16 7.2 16 16-7.2 16-16 16zm0-64c-8.8 0-16-7.2-16-16s7.2-16 16-16 16 7.2 16 16-7.2 16-16 16z"/>
   <path d="m352 192c-26.5 0-48 21.5-48 48 0 13.3 5.3 25.3 14 34-8.7 8.7-14 20.7-14 34 0 26.5 21.5 48 48 48s48-21.5 48-48c0-13.3-5.3-25.3-14-34 8.7-8.7 14-20.7 14-34 0-26.5-21.5-48-48-48zm0 128c-8.8 0-16-7.2-16-16s7.2-16 16-16 16 7.2 16 16-7.2 16-16 16zm0-64c-8.8 0-16-7.2-16-16s7.2-16 16-16 16 7.2 16 16-7.2 16-16 16z"/>
   <path d="m160 192c-26.5 0-48 21.5-48 48 0 13.3 5.3 25.3 14 34-8.7 8.7-14 20.7-14 34 0 26.5 21.5 48 48 48s48-21.5 48-48c0-13.3-5.3-25.3-14-34 8.7-8.7 14-20.7 14-34 0-26.5-21.5-48-48-48zm0 128c-8.8 0-16-7.2-16-16s7.2-16 16-16 16 7.2 16 16-7.2 16-16 16zm0-64c-8.8 0-16-7.2-16-16s7.2-16 16-16 16 7.2 16 16-7.2 16-16 16z"/>
  </g>
 </g>
</svg>
